<?xml version="1.0" encoding="utf-8"?>
<svg viewBox="0 0 32 32" xmlns="http://www.w3.org/2000/svg">
  <defs>
    <style id="bx-google-fonts">@import url(https://fonts.googleapis.com/css?family=Roboto:100,100italic,300,300italic,400,400italic,500,500italic,700,700italic,900,900italic);</style>
  </defs>
  <g id="glibre" transform="matrix(0.095538, 0, 0, 0.095538, -8.083054, -7.851116)">
    <g id="macron" transform="matrix(0.8414844870567323, 0, 0, 0.8414844870567323, 466.02239990234375, -317.1852722167969)">
      <path class="main" d="M -226.04393005371094 501.504638671875 L -200.2147674560547 522.2083129882812 C -211.14907836914062 536.2066650390625 -227.52011108398438 546.26318359375 -247.61410522460938 548.4764404296875 C -272.4909973144531 551.216552734375 -296.9399719238281 540.476806640625 -311.75140380859375 520.3029174804688 C -297.8028564453125 509.72064208984375 -300.5026550292969 512.0447998046875 -285.0860595703125 500.7257080078125 C -277.26898193359375 511.3730773925781 -264.3653564453125 517.041259765625 -251.2359161376953 515.5950927734375 C -240.5225830078125 514.4150390625 -231.814453125 509.0106201171875 -226.04393005371094 501.504638671875 Z " transform="matrix(1, 0, 0, 1, 8.722895472601522e-8, -21.39076670786494)" style=""/>
    </g>
  </g>
  <text x="-1.786" y="48.999" style="font-size: 12.9px; font-family: Roboto; white-space: pre;">Not made for larger than 32px</text>
  <ellipse cx="26.549" cy="45.935" rx="2.06" ry="2.06" transform="matrix(1, 0, 0, 1.000001, -13.709144, -16.135851)"/>
  <path class="G main" d="M 16.654 16.022 L 26.796 15.992 L 26.768 26.634 L 23.452 23.247 C 21.585 25.159 18.972 26.395 15.931 26.395 C 12.166 26.395 8.685 24.386 6.804 21.126 C 2.746 14.099 7.817 5.315 15.931 5.315 C 19.658 5.315 23.103 7.284 25.001 10.487 L 20.605 12.841 C 19.585 11.257 17.827 10.292 15.931 10.292 C 11.649 10.292 8.972 14.928 11.113 18.637 C 12.107 20.357 13.944 21.419 15.931 21.419 C 17.552 21.419 18.944 20.754 19.93 19.726 L 16.654 16.022 Z"/>
  <ellipse cx="26.549" cy="45.935" rx="2.06" ry="2.06" transform="matrix(1.000001, 0, 0, 1.000001, -7.709169, -16.13618)"/>
</svg>