<?xml version="1.0" encoding="UTF-8" standalone="no"?>
<svg xmlns:rdf="http://www.w3.org/1999/02/22-rdf-syntax-ns#" xmlns="http://www.w3.org/2000/svg" height="48" width="48" version="1.1" xmlns:cc="http://creativecommons.org/ns#" xmlns:dc="http://purl.org/dc/elements/1.1/" viewBox="0 0 45 45.000001">
 <metadata>
  <rdf:RDF>
   <cc:Work rdf:about="">
    <dc:format>image/svg+xml</dc:format>
    <dc:type rdf:resource="http://purl.org/dc/dcmitype/StillImage"/>
    <dc:title/>
   </cc:Work>
  </rdf:RDF>
 </metadata>
 <defs>
  <style id="bx-google-fonts">@import url(https://fonts.googleapis.com/css?family=Open+Sans:300,300italic,400,400italic,600,600italic,700,700italic,800,800italic);</style>
  <clipPath id="clipPath5625-3" clipPathUnits="userSpaceOnUse">
   <path stroke-linejoin="round" d="m219.98 1173.8 158.75-158.9c79.375 79.459 79.375 238.38 0 317.84z" stroke="#000" stroke-linecap="round" stroke-width="15.883px" fill="none"/>
  </clipPath>
  <filter id="filter4753-6" style="color-interpolation-filters:sRGB">
   <feColorMatrix values="0.21 0.72 0.072 0 0 0.21 0.72 0.072 0 0 0.21 0.72 0.072 0 0 0 0 0 1 0 " result="fbSourceGraphic"/>
   <feColorMatrix values="0 0 0 -1 0 0 0 0 -1 0 0 0 0 -1 0 0 0 0 1 0" result="fbSourceGraphicAlpha" in="fbSourceGraphic"/>
   <feColorMatrix values="0.21 0.72 0.072 0 0 0.21 0.72 0.072 0 0 0.21 0.72 0.072 0 0 0 0 0 1 0 " in="fbSourceGraphic"/>
  </filter>
  <style>@import url(https://fonts.googleapis.com/css?family=Roboto:100,100italic,300,300italic,400,400italic,500,500italic,700,700italic,900,900italic);</style>
 </defs>
 <g fill="#d3cfbd" transform="matrix(2.1008 0 0 2.1008 -15.523 -213.99)" fill-opacity=".58824">
  <g transform="matrix(.095538 0 0 .095538 -6.0696 88.795)">
   <g fill="#d3cfbd" transform="matrix(.84148 0 0 .84148 466.02 -317.19)" fill-opacity=".58824">
    <path d="m-226.04 501.5 25.829 20.704c-10.934 13.998-27.305 24.055-47.399 26.268-24.877 2.7401-49.326-7.9996-64.137-28.174 13.949-10.582 11.249-8.2581 26.665-19.577 7.8171 10.647 20.721 16.316 33.85 14.869 10.713-1.18 19.421-6.5845 25.192-14.09z" fill-opacity=".58824" transform="translate(8.7229e-8 -21.391)" class="main" fill="#d3cfbd"/>
   </g>
  </g>
  <path d="m18.667 112.67 10.142-0.03-0.028 10.642-3.316-3.387c-1.867 1.912-4.48 3.148-7.521 3.148-3.765 0-7.246-2.009-9.127-5.269-4.058-7.027 1.013-15.811 9.127-15.811 3.727 0 7.172 1.969 9.07 5.172l-4.396 2.354c-1.02-1.584-2.778-2.549-4.674-2.549-4.282 0-6.959 4.636-4.818 8.345 0.994 1.72 2.831 2.782 4.818 2.782 1.621 0 3.013-0.665 3.999-1.693z" class="G main"/>
 </g>
 <g transform="translate(58.594 32.344)">
  <g fill="none">
   <path d="m-21.094 0.46875-6.8162-7.0154-7.3653-17.721" stroke="#fc0" stroke-width=".9375px"/>
   <path d="m-30.469 7.4996-6.802-3.4589 9.361-10.587-2.559 14.046 9.375-7.0306-3.273-14.063-1.415-11.717l-9.494 1.0441 10.908 10.673" stroke="#1ce31c" stroke-width=".9375px"/>
   <g style="" stroke-width=".9375px" stroke="#1ce3e3">
    <path d="m-27.91-6.5466 11.504-7.0474l-7.9613-0.0002"/>
    <path d="m-21.094 0.46875 4.6875-14.062-9.375-11.718"/>
   </g>
  </g>
  <g stroke-linejoin="bevel" stroke-width=".9375" stroke-linecap="round" fill="#5abd17">
   <circle cy="4.0407" cx="-37.271" r="2.3438"/>
   <circle cy=".46875" cx="-21.094" r="2.3438"/>
   <circle cy="-25.311" cx="-25.782" r="2.3438"/>
  </g>
  <circle stroke-linejoin="bevel" cx="-16.406" stroke-linecap="round" cy="-13.594" r="2.3438" stroke-width=".9375" fill="#999"/>
  <g stroke-linejoin="bevel" stroke-width=".9375" stroke-linecap="round" fill="#0e720e">
   <circle cy="-13.594" cx="-24.367" r="2.3438"/>
   <circle cy="7.4996" cx="-30.469" r="2.3438"/>
   <circle cy="-24.267" cx="-35.275" r="2.3438"/>
   <circle cy="-6.5466" cx="-27.91" r="2.3438"/>
  </g>
 </g>
 <g transform="matrix(1.4859 0 0 1.4859 70.775 -9.5391)">
  <path stroke-linejoin="bevel" d="m-46.875 21.563 9.375-9.375c4.6875 4.6875 4.6875 14.063 0 18.75z" fill-rule="evenodd" stroke="#000" stroke-linecap="round" stroke-width=".9375px" fill="#fff"/>
  <g opacity=".5" clip-path="url(#clipPath5625-3)" transform="matrix(.059055 0 0 .058993 -59.866 -47.685)" filter="url(#filter4753-6)">
   <g transform="matrix(.41676 0 0 .41676 93.94 876.37)">
    <path fill-opacity=".99394" fill="#41b2ff" d="m428.92 238.48c-1.6407 0.001-3.2843 0.0133-4.9297 0.0352-210.6 2.8-379.07 175.78-376.29 386.39 2.771 210.6 175.73 379.09 386.34 376.39 210.61-2.79 379.12-175.73 376.4-386.34l-0.004-0.20703c-2.81-208.95-173.15-376.4-381.52-376.27z"/>
    <g fill-rule="evenodd">
     <path fill="#5096c8" d="m428.92 238.48c-1.6407 0.001-3.2843 0.0133-4.9297 0.0352-52.47 0.69805-102.32 11.962-147.56 31.736 102.07 17.607 269.42 73.738 305.92 252.73l248.09 146.92c2.06-16.88-19.77-37.46-21.29-150.78s-171.86-280.77-380.23-280.64z"/>
     <path fill="#ffd086" d="m585.17 524.91c-137.75 213.93-299.24 272.77-491.82 276.13 65.31 120.8 193.85 202.16 340.69 200.26 173.53-2.31 318.47-120.12 362.61-279.33-2.6864-6.5776-6.2011-13.62-10.816-21.135-17.14-23.8-76.73-132.36-200.66-175.93z"/>
     <g fill-opacity=".99394">
      <path fill="#270b0b" d="m586.25 524.12c-21.572 126.34-108.28 230.36-87.67 311.49 26.064 102.6-79.126 125.91-164.61 153.74 31.951 8.2031 65.502 12.365 100.07 11.914 200.01-2.6066 384.99-155.79 398.45-351.88-16.363-4.6623-55.068-14.685-65.771-26.628-32.688-36.474-116.61-76.182-180.47-98.631z"/>
      <path fill="#cd8a03" d="m585 531.33c-26.422 62.173-14.831 66.986-37.916 116.64-14.171 30.482-17.333 46.717-38.172 103.35l307.77 38.693c15.598-29.077 2.0381-33.574 10.085-64.455-64.19-64.91-133.92-153.59-241.76-194.23z"/>
      <path fill="#402801" d="m555.26 629-10.446 16.981c-2.5036 15.42-19.929 49.427-41.295 110.74-29.118 83.568 66.829 38.283 73.68 41.383 64.612 29.235 203.73 31.665 250.42 17.205 16.454-27.57-1.3041-50.706 7.8159-82.173-281.04-47.382-16.219-32.315-280.17-104.14z"/>
      <path fill="#fbbc38" d="m504.68 865.61c-22.815 71.323-112.93 103.95-173.36 123.03 32.746 8.6608 67.195 13.076 102.72 12.613 352.81 228.01 354.06-29.425 420.73-90.639-50.964-3.1682-270.61-15.047-350.09-45.003z"/>
      <path fill="#fcc24d" d="m497.02 776.21c-0.24187 19.109-15.693 67.678 4.8652 95.176 13.909 18.604 222.39 35.563 287.14 56.335 37.495-31.086 25.828-85.197 49.186-128.29-88.158 0.4392-246.98 12.284-341.19-23.221z"/>
     </g>
    </g>
   </g>
  </g>
  <g stroke-width=".9375px" stroke-linecap="round" stroke="#000">
   <path stroke-linejoin="bevel" fill="none" d="m-46.875 21.562 9.375-9.375c4.6875 4.6875 4.6875 14.062 0 18.75z"/>
   <path stroke-linejoin="round" fill="none" d="m-32.812 35.625-14.063-14.063 14.063-14.062"/>
   <path stroke-linejoin="round" fill-rule="evenodd" d="m-34.688 16.875c-2.8125 1.875-2.8125 7.5 0 9.375 0.92402-3.7926 0.92668-5.6654 0-9.375z"/>
  </g>
 </g>
</svg>
