<?xml version="1.0" encoding="UTF-8" standalone="no"?>
<svg
   xmlns:dc="http://purl.org/dc/elements/1.1/"
   xmlns:cc="http://creativecommons.org/ns#"
   xmlns:rdf="http://www.w3.org/1999/02/22-rdf-syntax-ns#"
   xmlns:svg="http://www.w3.org/2000/svg"
   xmlns="http://www.w3.org/2000/svg"
   xmlns:sodipodi="http://sodipodi.sourceforge.net/DTD/sodipodi-0.dtd"
   xmlns:inkscape="http://www.inkscape.org/namespaces/inkscape"
   version="1.0"
   width="1501.000000pt"
   height="1432.000000pt"
   viewBox="0 0 1501.000000 1432.000000"
   preserveAspectRatio="xMidYMid meet"
   id="svg10"
   sodipodi:docname="Silkaj.svg"
   inkscape:version="0.92.2 (5c3e80d, 2017-08-06)">
  <defs
     id="defs14" />
  <sodipodi:namedview
     pagecolor="#ffffff"
     bordercolor="#666666"
     borderopacity="1"
     objecttolerance="10"
     gridtolerance="10"
     guidetolerance="10"
     inkscape:pageopacity="0"
     inkscape:pageshadow="2"
     inkscape:window-width="1080"
     inkscape:window-height="1857"
     id="namedview12"
     showgrid="false"
     inkscape:zoom="0.2472067"
     inkscape:cx="851.38906"
     inkscape:cy="444.52475"
     inkscape:window-x="-8"
     inkscape:window-y="-8"
     inkscape:window-maximized="1"
     inkscape:current-layer="g8" />
  <metadata
     id="metadata2">
Created by potrace 1.15, written by Peter Selinger 2001-2017
<rdf:RDF>
  <cc:Work
     rdf:about="">
    <dc:format>image/svg+xml</dc:format>
    <dc:type
       rdf:resource="http://purl.org/dc/dcmitype/StillImage" />
    <dc:title></dc:title>
  </cc:Work>
</rdf:RDF>
</metadata>
  <g
     transform="matrix(0.1,0,0,-0.1,0,1432)"
     id="g8"
     style="fill:#000000;stroke:none">
    <path
       style="stroke-width:0.13333334"
       d="M 1000.666,0 A 1000.6667,954.66668 0 0 0 0,954.66602 1000.6667,954.66668 0 0 0 1000.666,1909.334 1000.6667,954.66668 0 0 0 2001.334,954.66602 1000.6667,954.66668 0 0 0 1000.666,0 Z m -4.46678,85.550781 c 35.23338,-0.05 70.46788,0.315235 78.20118,1.115235 92.9333,10 156.5336,23.200524 230.9336,47.867184 45.8667,15.33334 82.7997,30.79948 129.0664,54.13282 61.7333,31.06666 106.7989,59.86783 158.2656,101.20117 56.5334,45.33333 114.2667,105.20013 156,161.46679 69.8667,94.13334 122.4007,208.79922 147.334,321.19922 5.6,25.33334 12.6663,67.86758 15.5996,94.26758 3.6,32.13334 3.6,152.93312 0,185.06642 -6.5333,58.1333 -18.6657,115.7328 -35.7324,168.1328 -41.8667,128.4 -110.1344,240.2659 -205.7344,337.1992 -73.7333,74.5334 -143.5999,125.6016 -234.5332,171.6016 -72.9333,36.8 -132.5323,58.6657 -212.2656,77.7324 -54.6667,13.0667 -81.0664,17.3328 -147.0664,24.1328 -18,1.7333 -136.80158,1.7339 -155.60158,-0.1328 C 865.46601,1825.1999 850.13333,1822.9327 810,1814.666 718.4,1795.7327 644.40052,1770.2667 563.86719,1730 499.73385,1697.8667 456.8,1670.2674 400,1624.8008 c -25.73333,-20.6667 -33.06575,-27.2001 -65.73242,-59.4668 -44.13334,-43.3333 -78.53516,-85.0681 -112.53516,-136.1348 -56.66667,-84.8 -101.59844,-190.2664 -122.398436,-287.0664 -5.466666,-25.3333 -14.934505,-83.5996 -17.201172,-105.5996 -2.933332,-28.4 -2.933332,-128.6664 0,-157.0664 2.266667,-22 11.734506,-80.39961 17.201172,-105.59961 16.933336,-78.8 51.732946,-168.26758 93.599606,-240.26758 36.93334,-63.86667 79.99961,-120 133.59961,-174 30.8,-31.2 48.13412,-47.06706 74.80078,-68.40039 55.33334,-44.53334 100.26654,-73.3332 162.53321,-104.5332 44.4,-22.13334 79.86679,-36.93334 125.46679,-52 C 762.66732,110.13268 826.4,96.933594 918,86.933594 c 7.73333,-0.866667 42.96588,-1.332813 78.19922,-1.382813 z m -0.99414,84.451169 c -10.62865,0.0107 -21.25443,0.23073 -31.8711,0.66407 C 928.66732,172.13268 898.8,175.33346 862,181.4668 c -90.8,15.2 -186.93372,48.66731 -262.40039,91.33398 -126.26667,71.46667 -226.26706,166.5319 -298.40039,283.86524 -47.33334,76.8 -75.19909,143.33333 -95.73242,228 C 190.40013,846.53268 185.33398,890.13333 185.33398,958 c 0,67.7333 5.06667,111.4673 20,173.334 20.26667,83.6 47.33295,148.2652 93.59961,223.8652 56.8,92.8 144.93399,184.1339 237.33399,245.8672 68,45.4667 128.93307,75.2 205.0664,100 85.46667,27.8667 165.06602,40.5332 254.66602,40.5332 51.7333,0 86.134,-2.7997 135.334,-11.0664 91.0667,-15.2 187.6001,-48.9333 263.4668,-92 117.6,-66.6667 210.9318,-152.9336 280.3984,-258.9336 C 1748.7992,1267.3329 1789.0667,1152.4 1802,1018 c 3.0667,-30.8 3.0667,-94.53398 0,-125.33398 C 1788.8,755.73268 1747.4663,639.46667 1671.5996,526 c -10.9333,-16.4 -41.0656,-55.86732 -54.2656,-71.33398 -49.2,-57.33334 -106.1346,-107.1987 -172.668,-151.33204 -130.25,-86.375 -290.0312,-133.49267 -449.46092,-133.33203 z m -85.29492,71.68164 c 7.79375,-0.0461 13.05703,0.8668 15.95703,2.7168 2.8,1.86667 3.46679,3.33294 3.46679,7.59961 0,7.46667 -4.79986,10.66732 -30.5332,19.33398 C 867.33411,282.00065 846.93399,290.53333 815.33398,306 744.26732,340.93333 688.93333,381.0668 634,437.4668 c -48.26667,49.6 -85.46667,102.80013 -116,165.46679 -25.73333,53.06667 -40.93385,97.06706 -53.86719,156.40039 -11.33333,52.13334 -13.46679,72.53269 -13.46679,128.66602 0,56 2.26731,78.26706 13.33398,128.4004 9.6,43.0667 24.26667,90.6669 38,122.9336 15.46667,36.2667 42.40052,85.4653 61.86719,113.332 28,40.1333 79.60039,99.334 86.40039,99.334 3.2,0 74.53176,-72.0006 284.39844,-287.334 37.73333,-38.8 90.53398,-92.79855 117.33398,-119.86522 26.8,-27.2 63.7333,-65.06667 82,-84 18.4,-19.06667 35.2007,-35.73502 37.334,-37.06836 5.2,-3.06666 19.0664,-3.33229 25.0664,-0.26562 5.2,2.66666 58.7988,55.46718 66.7988,65.86718 24.5334,31.60001 47.0677,88.8 53.7344,136.00002 3.6,25.7333 3.1992,76.3993 -0.8008,98.666 -6.1333,34.5333 -15.7336,64.534 -28.9336,91.334 -9.0666,18.1333 -29.5987,49.0661 -41.332,62.1328 -4.9333,5.4667 -12.2676,13.9992 -16.2676,19.1992 -7.3333,9.0667 -63.7323,67.0673 -174.2656,179.334 -30,30.4 -61.19976,62.9333 -69.06642,72 -19.46667,22.2667 -117.06732,119.0676 -123.33399,122.2676 -9.06666,4.4 -24.93294,3.1985 -53.59961,-4.1348 -51.6,-13.4667 -91.4677,-28.2661 -139.73437,-52.1328 -111.46667,-55.0667 -198.1332,-126.6667 -268.5332,-222 -47.06667,-63.8667 -87.33295,-144.6667 -109.59961,-220 -13.2,-44.9333 -22.26628,-88.534 -27.59961,-133.334 -2.53334,-21.4667 -2.9336,-31.466 -2.9336,-76.666 0,-45.2 0.40026,-55.19987 2.9336,-76.5332 10.66666,-88.8 34.26692,-169.06745 72.93359,-246.80078 37.46667,-75.46667 79.6,-133.06667 142,-194 26.13334,-25.6 45.0651,-41.86537 68.39844,-59.33204 C 638.66589,317.20065 741.33307,271.33333 849.06641,250 c 27.83333,-5.5 47.85416,-8.23958 60.84375,-8.31641 z m 275.03714,21.16993 c 8.4166,-0.0417 19.3867,1.89583 32.3867,5.8125 43.8667,12.93333 110.7987,42.66796 155.332,68.66796 61.2,35.86667 107.734,72.13216 155.334,120.79883 53.0667,54.4 91.5992,108.26784 125.1992,175.20117 41.7334,82.80001 63.7349,156.66537 75.6016,253.33204 3.6,28.4 3.5995,123.86798 0.1328,152.66798 -9.4667,77.6 -26.5344,143.8657 -53.7344,207.7324 -10.2666,24.1333 -32.9334,68.6663 -45.4668,89.5996 -63.7333,105.4667 -153.9993,193.0679 -262.666,255.2012 -30.1333,17.2 -42.1322,22.5337 -54.7988,24.4004 -13.0667,1.8666 -15.4667,1.0666 -16,-6 -0.6667,-7.2 5.8656,-13.3348 34.2656,-32.1348 55.3333,-36.6667 95.4668,-70.5323 135.4668,-114.2656 51.0667,-56 87.2007,-112.1346 117.334,-182.668 19.2,-44.8 33.5988,-97.2001 40.7988,-149.4668 2.2667,-16.4 3.0668,-29.1992 3.4668,-65.1992 0.5333,-39.7333 0.2677,-47.4673 -2.2656,-69.33398 -6,-52.13334 -19.8682,-107.46589 -37.6016,-151.19922 -7.2,-17.46667 -27.0652,-58.80039 -35.8652,-74.40039 C 1540.6672,751.86628 1515.4673,714 1501.334,696 c -26,-33.46667 -59.7333,-68.79935 -90,-94.66602 -23.8667,-20.53333 -25.6012,-21.73411 -29.2012,-20.80078 -1.7333,0.4 -17.3336,15.19974 -34.9336,33.06641 C 1329.7326,631.46628 1294.9333,666.66667 1270,692 c -25.0667,25.33333 -49.3333,50.13398 -54,55.33398 -4.6667,5.06667 -31.9993,33.19896 -60.666,62.26563 -28.5333,29.06667 -85.3333,86.93463 -126,128.66797 -40.66668,41.6 -94.13465,96.13312 -118.66798,121.06642 -24.53334,24.9333 -49.46589,50.2651 -55.19922,56.3984 -5.73334,6.1334 -11.86771,11.7337 -13.73438,12.4004 -1.73333,0.6667 -6.66549,1.2012 -10.79883,1.2012 -10.26666,0 -16.8,-4.0008 -34,-20.8008 -16.66666,-16.2667 -26.66653,-30.6665 -40.5332,-58.5332 -13.06667,-25.8667 -17.73281,-38.134 -24.13281,-63.33398 C 723.73424,953.19935 722,937.6 722,892 c 0,-43.2 0.8,-51.6 8,-84 14.13333,-63.6 39.46719,-118.5332 79.86719,-172.5332 17.06666,-22.93334 30.7996,-37.46745 127.59961,-134.80078 46.66666,-46.93334 117.4673,-118.53256 157.334,-159.19922 49.2,-50 74.2652,-74.66706 77.8652,-76.40039 3.1,-1.45 7.2313,-2.18789 12.2813,-2.21289 z"
       transform="matrix(7.4999998,0,0,-7.4999998,0,14320)"
       id="path4"
       inkscape:connector-curvature="0" />
  </g>
</svg>
