<svg version="1.1" viewBox="0 0 275.4 216.4" xmlns="http://www.w3.org/2000/svg"><path d="m67.6 0c-0.1 1.5-0.1 2.6-0.1 3.2 0 8.4 1.8 14.7 5.4 18.8 3.6 4.1 8.3 6.1 14 6.1 6.8 0 13.2-2.3 19.2-7 6-4.7 11.7-11.7 17-21.1h-6.6c-4.1 5.1-7.7 8.5-10.8 10.2-5.1 2.8-10.4 4.3-15.9 4.3-3.2 1e-6 -6-0.6-8.5-1.7-2.5-1.1-4.3-2.5-5.5-4.2-0.7-1-1.4-3.9-2.3-8.6h-6zm125.4 39c-4.3 3.4-8.5 6.4-12.5 8.9-4 2.5-14.9 7.5-32.8 15.2l2.1 4.6c12.3-4.9 19.2-7.4 20.7-7.4 2 0 3 1.1 3 3.2 0 1.9-1.8 10.1-5.5 24.6l-11.1 38.1c-2.5 8.2-4.8 13.3-7.1 15.5-1.7 1.7-4.7 2.9-9.3 3.7-4.6 0.9-8.7 1.7-12.3 2.6l-1.8 4.6c10-1.4 19.2-2.1 27.7-2.1 5.8 0 16.2 0.7 30.9 2.1l2.1-4.6c-3-0.5-6-0.9-9.1-1.1-4.1-0.4-6.8-0.9-7.9-1.5-1.2-0.6-1.8-1.5-1.8-2.5 0-1.4 0.6-4 1.8-7.8l11.9-46.2 14.3-49.8h-3.4zm-109.9 2.1c-12.4 0-25.5 3.9-39.3 11.6-13.8 7.8-24.5 17.6-32.3 29.6-7.7 12-11.6 24.8-11.6 38.4 0 15 5.1 26.6 15.3 35 7.6 6.3 18.1 9.4 31.4 9.4 5.4 0 10.6-0.6 15.7-1.9 5.1-1.2 10.2-3.1 15.2-5.5-7.2 23.8-14.5 38.9-21.9 45.5-3.6 3.3-7.8 5-12.6 5-2.3 0-4.5-0.5-6.6-1.6-2.1-1.1-5-3.4-8.7-7.1-3.2-3.2-6.2-4.9-8.7-4.9-1.9-1e-5 -3.6 0.6-5 1.9-1.5 1.3-2.2 2.8-2.2 4.7 0 3.4 2.3 6.6 7 9.7 4.6 3.1 10.7 4.6 18.3 4.6 8.9 0 17.2-2.2 24.9-6.7s14.5-11.9 20.6-22.2c6-10.3 12.1-26.9 18.4-50 1.8-6.4 3.4-10.4 5-11.9 1.6-1.5 4.3-2.2 8.1-2.2l1.2-5.2c-2.1 0.1-4.6 0.2-7.6 0.4-5.6 0.4-9.7 0.6-12.5 0.6-1.5 0-3.8-0-6.9-0.1-4-0.1-7.4-0.2-10.1-0.2-3.4 0-6.8 0.3-10.1 0.8l-1 5c4.6-0.3 7.5-0.5 8.7-0.5 3.5 0 6 0.5 7.4 1.5 1.4 1 2.1 2.3 2.1 4 0 3.5-1.7 10.6-5.2 21.2-4.2 2.3-8.5 4-13.1 5.2-4.6 1.2-9.3 1.8-14.3 1.8-8.4 0-16-3-22.7-9-6.8-6-10.1-15.4-10.1-28.1 0-12.5 3.4-24.6 10.3-36.1 6.8-11.5 15.6-20.5 26.3-27 10.7-6.4 21.4-9.7 32.1-9.7 7.7 0 14.2 2.1 19.4 6.3 5.2 4.2 7.9 10.8 7.9 19.9 0 2.4-0.2 5.2-0.6 8.4h6.1c0-10.5 2.1-22.2 6.2-35-4.8-0.1-11.7-1-20.8-2.8-9.1-1.9-17-2.8-23.7-2.8zm108.4 124.5c-2.5 0-5.4 0.8-8.9 2.3-3.5 1.5-8.1 4.7-13.9 9.4l2.3 2c2.5-2.3 5.1-4.2 7.9-5.8 1.4-0.8 2.4-1.2 3.1-1.2 0.9 0 1.4 0.5 1.4 1.6 0 0.4-0.1 1-0.3 1.9l-6.1 22c-1.4 5.3-3.1 10.8-5 16.6h10.2l5.5-20.2c1.2-4.6 2.8-7.9 4.6-10 2.9-3.2 6.4-6.1 10.7-8.5 2.9-1.6 5.2-2.4 7-2.4 1.7 0 2.5 0.6 2.5 1.8 0 0.8-0.8 3.6-2.3 8.5-5.1 13.6-7.6 22.2-7.6 25.6 0 2.4 0.5 4.1 1.4 5.2 1 1.1 2.3 1.6 4 1.6 1.9 0 4.2-0.8 7.1-2.3 4.5-2.4 8.8-5.5 13-9.4l-1.7-2.1c-2 1.3-4 2.7-6 4.3-2.8 2.2-4.9 3.2-6.2 3.2-0.5 0-0.9-0.2-1.2-0.6-0.3-0.4-0.4-1-0.4-1.8 0-2.6 1.5-7.8 4.4-15.7 3.1-8.4 5-13.9 5.7-16.4 0.4-1.5 0.6-2.9 0.6-4 0-1.8-0.5-3.2-1.5-4.2-1-1-2.4-1.4-4.2-1.4-2.4 0-5.5 1-9.2 3-7 3.8-12.8 7.9-17.4 12.2l3.1-11.6c0.2-0.9 0.3-1.5 0.3-1.8 0-0.5-0.3-0.9-0.8-1.2-0.5-0.3-1.3-0.5-2.3-0.5zm73.8 0.1c-9.2 0-17.2 4.6-23.8 13.9-5.9 8.2-8.9 16.4-8.9 24.6 0 4.1 0.9 7.1 2.6 8.9 1.7 1.9 4.2 2.8 7.4 2.8 8 0 17.5-4.5 28.7-13.5l-2.3-2.5c-5.8 3.7-10.2 6.1-13.2 7.3-2.2 0.9-4.3 1.3-6.1 1.3-2 0-3.4-0.5-4.5-1.6-1-1.1-1.5-3-1.5-5.7 0-1.9 0.2-3.9 0.6-6 8.6-3.3 14.3-5.6 16.9-6.9 5.3-2.6 8.9-5.1 11-7.6 2-2.4 3.1-4.9 3.1-7.4 0-2.4-0.9-4.3-2.6-5.6-1.7-1.4-4.2-2.1-7.4-2.1zm-139.4 0.1c-2 0-4.5 0.7-7.7 2.2-3.2 1.4-7.9 4.5-14 9.1l3 2c3.4-2.7 5.8-4.5 7.2-5.2 1.4-0.7 2.5-1.1 3.3-1.1 0.9 0 1.4 0.5 1.4 1.6 0 1.9-1.5 7.4-4.6 16.7-2.4 7.3-3.9 12.2-4.5 14.6-0.4 1.7-0.6 3.4-0.6 4.9 0 1.9 0.5 3.3 1.4 4.2 0.9 0.9 2.2 1.3 3.8 1.3 2.9 0 6.3-1 10.3-2.9 6-3 11-6.4 15-10.4-1 3.4-1.5 6-1.5 8 0 1.7 0.5 3.1 1.5 4 1 0.9 2.3 1.4 3.7 1.4 4.3 0 11.1-4 20.2-12.1l-2.3-2.1c-4.2 3.6-7 5.8-8.5 6.7-1 0.6-2 0.9-2.7 0.9-0.5 0-1-0.2-1.4-0.6-0.4-0.4-0.6-0.9-0.6-1.7 0-1.6 1.9-8.3 5.7-20l6.4-20.2h-9.7l-7.4 23.8c-1.5 4.5-4.5 8.6-9.2 12.2-4.7 3.6-8.3 5.4-10.8 5.4-0.7 0-1.4-0.3-2-0.9-0.6-0.6-0.9-1.3-0.9-2.1 0-1.3 1.5-6.7 4.4-16 3.3-10.4 4.9-17 4.9-19.6 0-1.4-0.3-2.5-1-3.2s-1.6-1-2.7-1zm133.9 4.7c1.6 0 3 0.5 4 1.5 1 1 1.5 2.3 1.5 4 0 2.2-1.3 4.4-3.8 6.6-3.7 3.2-9.2 6.2-16.5 9 0.9-4.4 2.3-8.7 4.4-13 1.5-2.9 3.3-5 5.4-6.5 1.6-1.1 3.2-1.6 4.9-1.6z"/></svg>
