<?xml version="1.0" standalone="no"?>
<!DOCTYPE svg PUBLIC "-//W3C//DTD SVG 20010904//EN"
 "http://www.w3.org/TR/2001/REC-SVG-20010904/DTD/svg10.dtd">
<svg version="1.0" xmlns="http://www.w3.org/2000/svg"
 width="700.000000pt" height="700.000000pt" viewBox="0 0 700.000000 700.000000"
 preserveAspectRatio="xMidYMid meet">
<metadata>
Created by potrace 1.11, written by Peter Selinger 2001-2013
</metadata>
<g transform="translate(0.000000,700.000000) scale(0.100000,-0.100000)"
fill="#000000" stroke="none">
<path d="M2905 6879 c-22 -16 -123 -91 -225 -166 -102 -74 -187 -137 -189
-139 -6 -5 93 -118 154 -177 72 -69 230 -172 332 -217 89 -39 224 -82 298 -95
89 -14 301 -15 390 0 91 14 261 59 280 74 5 4 29 15 53 24 123 48 303 182 408
304 l44 52 -153 123 c-85 68 -171 137 -192 153 -21 17 -44 35 -50 40 -58 53
-51 52 -99 2 -87 -89 -198 -155 -316 -188 -25 -7 -97 -12 -160 -12 -99 0 -126
3 -195 27 -104 35 -211 102 -273 171 -28 30 -54 55 -59 55 -4 0 -26 -14 -48
-31z"/>
<path d="M3357 5834 c-1 -1 -38 -5 -82 -8 -152 -14 -215 -24 -350 -57 -176
-44 -279 -81 -460 -169 -312 -152 -580 -371 -796 -650 -396 -511 -566 -1169
-462 -1785 40 -241 137 -525 240 -708 18 -33 33 -61 33 -64 0 -13 161 -248
219 -318 74 -91 232 -250 306 -310 28 -22 52 -42 55 -45 17 -17 128 -95 200
-140 248 -156 555 -273 833 -319 62 -11 104 -16 197 -26 47 -5 345 -6 395 -1
124 13 171 20 280 42 415 86 808 294 1113 588 l53 51 197 -202 c108 -111 267
-273 352 -360 86 -88 160 -162 166 -165 6 -5 11 376 13 1153 l2 1159 -48 0
c-26 0 -325 0 -663 -1 -1008 -1 -1500 -4 -1500 -8 0 -4 114 -136 130 -151 3
-3 37 -41 75 -85 39 -44 75 -85 80 -91 14 -15 140 -157 195 -219 25 -28 74
-83 109 -123 35 -40 76 -87 92 -104 l28 -33 -42 -40 c-143 -137 -340 -246
-527 -291 -93 -22 -99 -23 -176 -31 -372 -38 -727 88 -989 351 -179 180 -307
427 -340 656 -4 24 -9 48 -12 52 -2 5 -4 68 -4 141 0 285 104 580 275 778 17
19 40 46 52 60 149 173 400 313 654 365 101 20 353 26 408 10 9 -3 33 -8 52
-11 279 -46 561 -221 739 -457 l58 -77 39 20 c21 12 66 36 99 54 82 44 193
104 295 158 47 24 180 95 295 157 116 62 216 115 223 119 8 5 -8 36 -54 106
-318 480 -795 818 -1359 962 -55 14 -109 26 -120 28 -11 1 -33 5 -50 8 -32 7
-74 13 -165 23 -48 6 -348 12 -353 8z"/>
<path d="M3352 904 c-144 -52 -258 -179 -291 -324 -14 -62 -7 -185 15 -245 51
-145 183 -261 333 -294 53 -12 166 -7 219 9 267 81 395 382 271 637 -28 58
-118 152 -179 186 -109 61 -252 73 -368 31z"/>
</g>
</svg>
